<svg width="129" height="48" viewBox="0 0 129 48" fill="none" xmlns="http://www.w3.org/2000/svg">
<path fill-rule="evenodd" clip-rule="evenodd" d="M29.2488 38.3871C28.0026 37.9739 26.8553 37.3514 25.8376 36.4916C24.8096 35.624 24.0408 34.6139 23.5043 33.5115C20.1084 26.5208 26.1109 15.7941 35.7069 14.0372C38.5176 8.20925 34.3606 3.61467 27.4931 5.36908C23.6557 6.3496 18.5042 8.31704 14.183 15.1447C13.0228 17.2752 12.1398 19.5738 11.6008 21.9904C10.1698 28.4305 11.4724 34.4407 14.7194 38.8723C15.6537 40.1454 16.7498 41.2915 17.9883 42.2758C20.7758 44.4961 24.2795 45.9156 28.2927 46.2236C40.2848 47.1412 52.2512 37.7839 55.0259 25.3183C55.1709 24.6535 55.2916 23.9951 55.3814 23.3431C51.6711 33.5846 38.0953 41.3248 29.2488 38.3871Z" fill="#4C6ED7"/>
<path opacity="0.25" fill-rule="evenodd" clip-rule="evenodd" d="M29.2489 38.3871C29.1732 38.3614 29.0988 38.3371 29.0231 38.3088C27.4843 39.0327 25.9429 39.682 24.4336 40.2544C40.1476 46.2351 52.4477 34.329 55.3803 23.3444C51.6712 33.5846 38.0954 41.3248 29.2489 38.3871Z" fill="#B6FFFF"/>
<path opacity="0.25" fill-rule="evenodd" clip-rule="evenodd" d="M29.2485 38.3872C28.1576 38.0265 27.1399 37.5029 26.2235 36.8009C25.2584 37.3528 24.2663 37.8867 23.2434 38.4077C21.2182 39.4357 19.0852 40.4008 16.856 41.2979C17.2166 41.6393 17.5952 41.9679 17.9866 42.2784C18.405 42.6121 18.8388 42.9279 19.288 43.223C21.8278 42.8444 24.2343 42.3734 26.5123 41.8113C29.1612 41.1593 32.1118 40.1865 35.1252 38.9211C33.0512 39.1418 31.0517 38.9865 29.2485 38.3872Z" fill="#01052D"/>
<path opacity="0.25" fill-rule="evenodd" clip-rule="evenodd" d="M27.4918 5.36909C23.6544 6.3496 18.5029 8.31704 14.1816 15.1447C18.6235 11.0545 28.8676 9.49778 28.1438 17.7462C30.2267 15.9238 32.8012 14.5672 35.7056 14.0359C38.5162 8.20924 34.3606 3.61468 27.4918 5.36909Z" fill="#01052D"/>
<path opacity="0.15" fill-rule="evenodd" clip-rule="evenodd" d="M27.4918 5.36908C23.6544 6.3496 18.5029 8.31704 14.1816 15.1447C20.2983 8.06549 34.2502 3.59927 33.33 14.6763C34.0949 14.4029 34.8868 14.1873 35.7068 14.0372C38.5162 8.20925 34.3606 3.61467 27.4918 5.36908Z" fill="#01052D"/>
<path fill-rule="evenodd" clip-rule="evenodd" d="M14.1816 15.1448C22.7368 3.66476 37.1571 2.73173 35.6183 16.2331C34.9137 22.3922 30.4474 28.3856 23.5029 33.5115C20.8989 35.4315 17.9484 37.2308 14.7168 38.8736C10.2826 41.1272 5.31713 43.0819 0 44.6438C6.72502 44.4102 12.6993 43.5785 17.9856 42.2772C31.161 39.0366 51.7275 27.9236 50.5262 11.8233C49.2749 -4.97253 22.9524 -0.942655 14.1816 15.1448Z" fill="#4C6ED7"/>
<path opacity="0.3" fill-rule="evenodd" clip-rule="evenodd" d="M32.959 7.08371C30.2498 5.27925 26.6447 5.76309 23.7776 6.89762C21.8923 7.64455 17.4889 10.0881 14.1816 15.1447C22.7368 3.66472 37.1571 2.7317 35.6183 16.2331C34.9137 22.3921 30.4474 28.3856 23.5029 33.5115C20.8989 35.4315 17.9484 37.2308 14.7168 38.8735C10.2826 41.1272 5.31713 43.0818 0 44.6437C6.02043 43.155 11.2144 41.1413 14.9144 39.2599C17.992 37.698 20.9811 35.914 23.7609 33.8606C29.413 29.6895 35.2165 23.5882 36.0482 16.2844C36.2638 14.3991 36.2215 12.3739 35.5849 10.572C35.0818 9.14743 34.2245 7.92819 32.959 7.08371Z" fill="#B6FFFF"/>
<path opacity="0.25" fill-rule="evenodd" clip-rule="evenodd" d="M14.1816 15.1448C22.2298 4.34369 35.4732 2.87934 35.7261 13.9949L35.7287 13.9923C41.7645 13.2274 49.538 15.173 48.1186 22.355C49.8781 19.149 50.8112 15.6248 50.5275 11.8247C49.2749 -4.9725 22.9524 -0.942636 14.1816 15.1448Z" fill="#114FEE"/>
<path opacity="0.25" fill-rule="evenodd" clip-rule="evenodd" d="M16.6112 11.5127C22.2441 6.14295 29.0898 2.96012 34.584 2.84461C45.9588 2.60847 46.3027 14.7533 40.1334 23.705C32.999 34.0569 16.3353 40.8282 2.7518 43.7902C1.847 44.0854 0.929364 44.3716 0.00146484 44.6424C6.72649 44.4089 12.7007 43.5772 17.9871 42.2758C31.1625 39.0352 51.7289 27.9223 50.5277 11.822C49.3752 -3.62756 27.0132 -1.4535 16.6112 11.5127Z" fill="#B6FFFF"/>
<path d="M75.784 15.872V7.328H74.08C73.808 7.328 73.616 6.984 73.504 6.296C73.456 5.96 73.432 5.616 73.432 5.264C73.432 4.912 73.456 4.568 73.504 4.232C73.616 3.544 73.808 3.2 74.08 3.2H82.144C82.416 3.2 82.6 3.544 82.696 4.232C82.76 4.568 82.792 4.912 82.792 5.264C82.792 5.616 82.76 5.96 82.696 6.296C82.6 6.984 82.416 7.328 82.144 7.328H80.536V15.872H82.216C82.488 15.872 82.68 16.216 82.792 16.904C82.856 17.24 82.888 17.584 82.888 17.936C82.888 18.288 82.856 18.632 82.792 18.968C82.68 19.656 82.488 20 82.216 20H74.128C73.856 20 73.672 19.656 73.576 18.968C73.512 18.632 73.48 18.288 73.48 17.936C73.48 17.584 73.512 17.24 73.576 16.904C73.672 16.216 73.856 15.872 74.128 15.872H75.784ZM91.7131 19.616C91.7131 19.936 90.9211 20.096 89.3371 20.096C87.7531 20.096 86.9611 19.936 86.9611 19.616V7.568H84.0811C83.8091 7.568 83.6171 7.2 83.5051 6.464C83.4571 6.112 83.4331 5.752 83.4331 5.384C83.4331 5.016 83.4571 4.656 83.5051 4.304C83.6171 3.568 83.8091 3.2 84.0811 3.2H94.5211C94.7931 3.2 94.9851 3.568 95.0971 4.304C95.1451 4.656 95.1691 5.016 95.1691 5.384C95.1691 5.752 95.1451 6.112 95.0971 6.464C94.9851 7.2 94.7931 7.568 94.5211 7.568H91.7131V19.616ZM104.336 9.872C104.64 9.872 104.792 10.432 104.792 11.552C104.792 11.888 104.752 12.288 104.672 12.752C104.608 13.2 104.48 13.424 104.288 13.424H101.24V15.824H105.656C105.928 15.824 106.112 16.176 106.208 16.88C106.256 17.184 106.28 17.512 106.28 17.864C106.28 18.2 106.232 18.64 106.136 19.184C106.04 19.728 105.88 20 105.656 20H97.4479C96.8399 20 96.5359 19.752 96.5359 19.256V3.824C96.5359 3.408 96.7199 3.2 97.0879 3.2H105.68C106.016 3.2 106.184 3.912 106.184 5.336C106.184 6.744 106.016 7.448 105.68 7.448H101.24V9.872H104.336ZM125.172 20.024C123.748 20.024 123.036 19.864 123.036 19.544L122.532 9.92L119.604 19.664C119.54 19.856 118.996 19.952 117.972 19.952C116.948 19.952 116.42 19.864 116.388 19.688L113.364 9.824L113.028 19.4C113.012 19.64 112.708 19.808 112.116 19.904C111.524 19.984 111.028 20.024 110.628 20.024C110.244 20.024 109.868 20 109.5 19.952C108.732 19.84 108.356 19.64 108.372 19.352L108.924 3.752C108.924 3.368 109.9 3.176 111.852 3.176C112.428 3.176 113.132 3.224 113.964 3.32C114.796 3.4 115.26 3.568 115.356 3.824L118.044 11.384L120.396 3.8C120.54 3.384 121.644 3.176 123.708 3.176C124.3 3.176 125.004 3.224 125.82 3.32C126.652 3.4 127.068 3.552 127.068 3.776L127.764 19.52C127.764 19.696 127.452 19.824 126.828 19.904C126.204 19.984 125.652 20.024 125.172 20.024ZM85.48 44.048C84.088 44.048 83.336 43.824 83.224 43.376L82.432 40.28H78.616L77.92 43.256C77.824 43.752 77.056 44 75.616 44C74.848 44 74.28 43.96 73.912 43.88C73.544 43.784 73.36 43.712 73.36 43.664L77.608 27.416C77.608 27.288 78.704 27.224 80.896 27.224C83.088 27.224 84.184 27.288 84.184 27.416L88.336 43.688C88.336 43.8 87.968 43.888 87.232 43.952C86.496 44.016 85.912 44.048 85.48 44.048ZM79.216 37.232H81.736L80.656 32.264H80.512L79.216 37.232ZM92.0146 44.048C90.5586 44.048 89.8306 43.888 89.8306 43.568V28.016C89.8306 27.472 90.0786 27.2 90.5746 27.2H94.7986C97.1666 27.2 98.8706 27.688 99.9106 28.664C100.967 29.64 101.495 31.056 101.495 32.912C101.495 34.448 100.999 35.856 100.007 37.136C99.5106 37.776 98.7826 38.288 97.8226 38.672C96.8626 39.056 95.7426 39.248 94.4626 39.248V43.544C94.4626 43.736 94.1586 43.872 93.5506 43.952C92.9586 44.016 92.4466 44.048 92.0146 44.048ZM94.4626 31.376V35.168H94.7746C95.3346 35.168 95.8066 34.992 96.1906 34.64C96.5746 34.288 96.7666 33.792 96.7666 33.152C96.7666 32.512 96.6306 32.056 96.3586 31.784C96.1026 31.512 95.6386 31.376 94.9666 31.376H94.4626ZM105.702 44.048C104.246 44.048 103.518 43.888 103.518 43.568V28.016C103.518 27.472 103.766 27.2 104.262 27.2H108.486C110.854 27.2 112.558 27.688 113.598 28.664C114.654 29.64 115.182 31.056 115.182 32.912C115.182 34.448 114.686 35.856 113.694 37.136C113.198 37.776 112.47 38.288 111.51 38.672C110.55 39.056 109.43 39.248 108.15 39.248V43.544C108.15 43.736 107.846 43.872 107.238 43.952C106.646 44.016 106.134 44.048 105.702 44.048ZM108.15 31.376V35.168H108.462C109.022 35.168 109.494 34.992 109.878 34.64C110.262 34.288 110.454 33.792 110.454 33.152C110.454 32.512 110.318 32.056 110.046 31.784C109.79 31.512 109.326 31.376 108.654 31.376H108.15Z" fill="black"/>
</svg>
